Coordinates
version=1
nRows=13
nColumns=38
inDegrees=no

Units are S.I. units (second, meters, Newtons, ...)
If the header above contains a line with 'inDegrees', this indicates whether rotational values are in degrees (yes) or radians (no).

endheader
time	pelvis_tilt	pelvis_list	pelvis_rotation	pelvis_tx	pelvis_ty	pelvis_tz	hip_flexion_r	hip_adduction_r	hip_rotation_r	knee_angle_r	ankle_angle_r	subtalar_angle_r	mtp_angle_r	hip_flexion_l	hip_adduction_l	hip_rotation_l	knee_angle_l	ankle_angle_l	subtalar_angle_l	mtp_angle_l	lumbar_extension	lumbar_bending	lumbar_rotation	arm_flex_r	arm_add_r	arm_rot_r	elbow_flex_r	pro_sup_r	wrist_flex_r	wrist_dev_r	arm_flex_l	arm_add_l	arm_rot_l	elbow_flex_l	pro_sup_l	wrist_flex_l	wrist_dev_l
6.15	0.577584	1.46226	-2.04725	0.796229	-0.445741	0.931816	-0.0587296	-0.140564	-0.278438	0.302116	0.136926	0	0	-0.215274	0.082407	-0.229958	0	0.017481	0	0	-0.164478	-0.0264765	-0.127952	0.0103726	-0.257384	0.57822	0.534613	1.47048	0	0	-0.0383506	-0.269019	0.395109	0.510821	1.57079	0	0
6.16	0.59614	1.46443	-2.06705	0.796163	-0.445651	0.931482	-0.0531466	-0.142328	-0.278639	0.306775	0.140124	0	0	-0.211923	0.0836245	-0.23229	0	0.0181115	0	0	-0.16098	-0.0271795	-0.128939	0.0165039	-0.273861	0.676879	0.551147	1.16301	0	0	-0.0416475	-0.27983	0.463402	0.533109	1.21294	0	0
6.17	0.602599	1.50277	-2.08082	0.793188	-0.446821	0.927334	-0.00606452	-0.12115	-0.276134	0.326828	0.157932	0	0	-0.173824	0.0641462	-0.270673	0	0.0411142	0	0	-0.121837	-0.0113694	-0.123791	0.0031565	-0.267352	0.63344	0.562174	1.06007	0	0	-0.0609456	-0.25627	0.331246	0.538696	1.07317	0	0
6.18	0.589295	1.4655	-2.05823	0.79537	-0.445084	0.931463	-0.053075	-0.138858	-0.276774	0.303083	0.14013	0	0	-0.207213	0.0822829	-0.259357	0	0.0277182	0	0	-0.165383	-0.027189	-0.129436	0.0180853	-0.272455	0.676764	0.54841	1.16456	0	0	-0.0343127	-0.283337	0.464463	0.53729	1.21362	0	0
6.19	0.576291	1.46249	-2.04359	0.795248	-0.445127	0.931773	-0.0584981	-0.138143	-0.277382	0.300029	0.137936	0	0	-0.210871	0.0818473	-0.257697	0	0.0267613	0	0	-0.169569	-0.0277537	-0.128977	0.0168689	-0.271555	0.667481	0.54429	1.2343	0	0	-0.0305986	-0.290943	0.490972	0.541936	1.29506	0	0
6.2	0.450309	1.47489	-1.91315	0.794118	-0.444665	0.930504	-0.0536559	-0.115494	-0.273378	0.295659	0.136227	0	0	-0.205138	0.0603504	-0.237183	0	0.0312459	0	0	-0.163794	-0.0113625	-0.128048	0.0128011	-0.270456	0.651198	0.544213	1.28671	0	0	-0.0292223	-0.292595	0.487286	0.545452	1.34975	0	0
6.21	0.60685	1.46484	-2.06837	0.795985	-0.44444	0.931617	-0.0546549	-0.140657	-0.280432	0.301901	0.138663	0	0	-0.207072	0.0824007	-0.239911	0	0.0248445	0	0	-0.168736	-0.0278659	-0.131399	0.00967457	-0.258653	0.57309	0.528235	1.48537	0	0	-0.026407	-0.271402	0.393147	0.520045	1.57078	0	0
6.22	0.584027	1.46322	-2.04878	0.794998	-0.445098	0.931874	-0.0581944	-0.137713	-0.278429	0.299388	0.137407	0	0	-0.209698	0.0812714	-0.25483	0	0.0256121	0	0	-0.170832	-0.0278719	-0.12835	0.00925133	-0.257854	0.572971	0.526924	1.48525	0	0	-0.0267209	-0.273074	0.392775	0.522867	1.57002	0	0
6.23	0.594867	1.4624	-2.06185	0.79549	-0.44548	0.931838	-0.0572635	-0.141195	-0.278715	0.303618	0.136962	0	0	-0.213728	0.082812	-0.229509	0	0.0156733	0	0	-0.167067	-0.0282351	-0.126035	0.00830007	-0.26826	0.612027	0.534853	1.38492	0	0	-0.0313531	-0.280883	0.447557	0.536298	1.44817	0	0
6.24	0.599761	1.46285	-2.0663	0.795383	-0.445461	0.931845	-0.056574	-0.141279	-0.278931	0.303703	0.136811	0	0	-0.213051	0.0828288	-0.228301	0	0.0149326	0	0	-0.167247	-0.0282876	-0.125893	0.00598572	-0.262263	0.571675	0.528855	1.48502	0	0	-0.0301387	-0.270362	0.393311	0.52556	1.56345	0	0
6.25	0.600119	1.46297	-2.06665	0.795269	-0.445404	0.93185	-0.0562362	-0.141113	-0.278168	0.303867	0.136703	0	0	-0.212845	0.0826762	-0.22827	0	0.0146852	0	0	-0.167628	-0.0282144	-0.125557	0.00601837	-0.262946	0.570911	0.529729	1.48377	0	0	-0.0288525	-0.270813	0.394626	0.527863	1.55977	0	0
6.26	0.600159	1.4633	-2.06667	0.795158	-0.445337	0.931851	-0.0557074	-0.140789	-0.277313	0.304074	0.136516	0	0	-0.212404	0.0824037	-0.228609	0	0.0142044	0	0	-0.167832	-0.0279793	-0.125125	0.00611303	-0.263635	0.570695	0.53062	1.48153	0	0	-0.0272938	-0.271382	0.396466	0.530195	1.55601	0	0
6.27	0.599358	1.46404	-2.06425	0.795079	-0.445439	0.931821	-0.0560579	-0.139764	-0.2784	0.302852	0.135994	0	0	-0.211673	0.0814011	-0.22826	0	0.0143462	0	0	-0.167328	-0.027534	-0.12623	0.0058628	-0.263958	0.570476	0.531366	1.47947	0	0	-0.0262866	-0.272684	0.398837	0.533506	1.55155	0	0
